<?xml version="1.0" encoding="utf-8"?>
<!-- Generator: Adobe Illustrator 27.0.0, SVG Export Plug-In . SVG Version: 6.00 Build 0)  -->
<svg version="1.1" id="Layer_1" xmlns="http://www.w3.org/2000/svg" xmlns:xlink="http://www.w3.org/1999/xlink" x="0px" y="0px"
	 viewBox="0 0 48 48" style="enable-background:new 0 0 48 48;" xml:space="preserve">
<style type="text/css">
	.st0{fill:#E6E6E6;}
</style>
<rect class="st0" width="48" height="48"/>
<path d="M13,33.6c1.8-1.2,3.6-2.2,5.3-2.9c1.8-0.7,3.6-1,5.7-1s3.9,0.3,5.7,1c1.8,0.7,3.5,1.6,5.3,2.9c1.2-1.5,2.1-3.1,2.7-4.6
	c0.5-1.6,0.8-3.2,0.8-4.9c0-4.1-1.4-7.5-4.1-10.3S28.1,9.5,24,9.5s-7.5,1.4-10.3,4.1S9.6,19.9,9.6,24c0,1.7,0.3,3.4,0.8,4.9
	C10.9,30.5,11.8,32,13,33.6z M24,25.3c-1.6,0-3-0.6-4.1-1.7s-1.7-2.5-1.7-4.1s0.6-3,1.7-4.1c1.1-1.1,2.5-1.7,4.1-1.7s3,0.6,4.1,1.7
	c1.1,1.1,1.7,2.5,1.7,4.1s-0.6,3-1.7,4.1C27,24.7,25.6,25.3,24,25.3z M24,41c-2.3,0-4.5-0.4-6.6-1.3c-2.1-0.9-3.9-2.1-5.4-3.7
	s-2.8-3.3-3.7-5.4S7,26.3,7,24s0.4-4.5,1.3-6.6s2.1-3.9,3.7-5.4s3.3-2.8,5.4-3.7S21.7,7,24,7s4.5,0.4,6.6,1.3s3.9,2.1,5.4,3.7
	c1.5,1.5,2.8,3.3,3.7,5.4c0.9,2.1,1.3,4.3,1.3,6.6s-0.4,4.5-1.3,6.6c-0.9,2.1-2.1,3.9-3.7,5.4c-1.5,1.5-3.3,2.8-5.4,3.7
	C28.6,40.6,26.4,41,24,41z M24,38.5c1.6,0,3.1-0.2,4.6-0.7s3-1.2,4.4-2.4c-1.4-1-2.9-1.8-4.4-2.3c-1.5-0.5-3-0.8-4.5-0.8
	c-1.5,0-3,0.3-4.5,0.8c-1.5,0.5-3,1.3-4.4,2.3c1.4,1.1,2.9,1.9,4.4,2.4C20.9,38.2,22.4,38.5,24,38.5z M24,22.7c1,0,1.7-0.3,2.4-0.9
	c0.6-0.6,0.9-1.4,0.9-2.4c0-1-0.3-1.7-0.9-2.4c-0.6-0.6-1.4-0.9-2.4-0.9s-1.7,0.3-2.4,0.9c-0.6,0.6-0.9,1.4-0.9,2.4
	c0,1,0.3,1.7,0.9,2.4C22.3,22.4,23,22.7,24,22.7z"/>
</svg>
