<?xml version="1.0" encoding="utf-8"?>
<!-- Generator: Adobe Illustrator 27.0.0, SVG Export Plug-In . SVG Version: 6.00 Build 0)  -->
<svg version="1.1"
	 id="svg2" xmlns:svg="http://www.w3.org/2000/svg" xmlns:inkscape="http://www.inkscape.org/namespaces/inkscape" xmlns:dc="http://purl.org/dc/elements/1.1/" xmlns:cc="http://creativecommons.org/ns#" xmlns:sodipodi="http://sodipodi.sourceforge.net/DTD/sodipodi-0.dtd" xmlns:rdf="http://www.w3.org/1999/02/22-rdf-syntax-ns#" inkscape:version="0.91 r13725" sodipodi:docname="93.svg"
	 xmlns="http://www.w3.org/2000/svg" xmlns:xlink="http://www.w3.org/1999/xlink" x="0px" y="0px" viewBox="0 0 3200 3200"
	 style="enable-background:new 0 0 3200 3200;" xml:space="preserve">
<style type="text/css">
	.st0{fill:#020202;stroke:#020202;stroke-width:18.7629;stroke-miterlimit:16.6781;}
	.st1{fill:#020202;stroke:#020202;stroke-miterlimit:10;}
	.st2{fill:#020202;stroke:#020202;stroke-width:13.551;stroke-miterlimit:16.6781;}
	.st3{fill:#020202;stroke:#020202;stroke-width:6;stroke-miterlimit:8;}
	.st4{fill:#020202;stroke:#020202;stroke-width:18.7629;stroke-miterlimit:33.3563;}
	.st5{fill:#020202;stroke:#020202;stroke-width:25.0173;stroke-miterlimit:33.3564;}
	.st6{fill:#020202;stroke:#020202;stroke-width:13.6226;stroke-miterlimit:36.327;}
	.st7{fill:#020202;stroke:#020202;stroke-width:22.7044;stroke-miterlimit:36.327;}
	.st8{fill:#020202;stroke:#020202;stroke-width:25.0172;stroke-miterlimit:33.3563;}
	.st9{fill:#020202;stroke:#020202;stroke-width:20.8477;stroke-miterlimit:33.3563;}
	.st10{clip-path:url(#SVGID_00000125590336955924131720000018222844102939316912_);}
	.st11{fill:#020202;stroke:#020202;stroke-width:13.551;stroke-miterlimit:33.3563;}
	.st12{fill:#020202;stroke:#020202;stroke-width:15.6358;stroke-miterlimit:33.3563;}
	.st13{clip-path:url(#SVGID_00000021102102793382535330000000803204135098274986_);}
	.st14{clip-path:url(#SVGID_00000148636903367246824230000004496296827590639236_);}
</style>
<sodipodi:namedview  bordercolor="#666666" borderopacity="1.0" id="base" inkscape:current-layer="layer8" inkscape:cx="3355.0844" inkscape:cy="2365.3485" inkscape:document-units="px" inkscape:pageopacity="0.0" inkscape:pageshadow="2" inkscape:snap-global="false" inkscape:window-height="1017" inkscape:window-maximized="1" inkscape:window-width="1920" inkscape:window-x="1672" inkscape:window-y="-8" inkscape:zoom="0.13734568" pagecolor="#ffffff" showgrid="false" showguides="false" units="px">
	</sodipodi:namedview>
<g id="layer8" inkscape:groupmode="layer" inkscape:label="Jumping Mouth Open">
	<g id="g8250" transform="matrix(4.1695347,0,0,4.1695347,5393.6664,-112.32055)">
		<g id="g8252" transform="matrix(0.75069704,0.66064662,-0.66064662,0.75069704,-2255.3072,-4350.1815)">
			<g id="g8254" transform="matrix(0.83439552,-0.55116614,0.55116614,0.83439552,-615.72368,2266.5819)">
				<path id="path8256" inkscape:connector-curvature="0" sodipodi:nodetypes="ccc" class="st0" d="M3713,3153c0,0-19-1.9-24.8-29.9
					c-31.9,32.8,14.5,51.5,14.5,51.5"/>
				<path id="path8258" inkscape:connector-curvature="0" sodipodi:nodetypes="cscc" class="st1" d="M3682.7,3152.6
					c-11.9-1.6-42.6,21.8-30.2,38.6c6.9,9.4,35.4-6.4,38.3-16.1C3690.7,3175.1,3700.6,3156.4,3682.7,3152.6z"/>
				<path id="path8260" inkscape:connector-curvature="0" sodipodi:nodetypes="cc" class="st2" d="M3652.1,3189.3
					c18.2-39.6,52.1-30.3,52.1-30.3"/>
				<path id="path8262" inkscape:connector-curvature="0" sodipodi:nodetypes="ssssscscccsccssccs" class="st1" d="M3670.2,3153.6
					c-4.6,2.3-9.3,5.8-13.3,9.8c-4,4.1-7.3,8.8-8.7,13.8s-1,10.6,2.5,15.3c2.3,3.2,6.4,4.1,10.5,3.7s8.6-1.8,12.9-3.9
					s8.5-4.7,11.9-7.6s6-5.8,6.9-9l-4.3-1.3c-0.5,1.6-2.5,4.3-5.5,6.8s-6.9,5.1-10.9,7s-8.1,3.2-11.4,3.5s-5.4-0.4-6.5-1.9
					c-2.7-3.6-3-7.4-1.8-11.4s4-8.2,7.6-11.9s8-6.9,12.2-9s9.8-3.2,11.9-3C3680.3,3149.5,3674.3,3151.5,3670.2,3153.6z"/>
				<path id="path8264" inkscape:connector-curvature="0" sodipodi:nodetypes="cssc" class="st0" d="M3706,3165.4
					c-7.8,0.5-19.3,1.4-28.9,12.8c-9.1,10.8-13.2,26.6-5.2,37.5c10,13.6,27.1-8.4,39.8-31.4"/>
			</g>
			<g id="g8266" transform="matrix(0.7634726,-0.64584022,0.64584022,0.7634726,4427.3544,1763.2075)">
			</g>
		</g>
		
			<g id="g8268" transform="matrix(0.90002,0.05707,-0.05141,0.99915,-858.4,178.2)" inkscape:transform-center-x="44.714" inkscape:transform-center-y="47.921">
			<g id="g8270" transform="translate(-614.17,191.93)">
				<path id="path8272" inkscape:connector-curvature="0" sodipodi:nodetypes="ssccss" class="st3" d="M509.4,211.4
					c-24.4,41.5-49,65.2-81.6,88.6c-9.4,6.8-10.2,35.5-3,57.1c0.1,0.3,50.9,14.5,52.1,14c36.9-27.4,69-100,66.3-143.6
					C542.7,219.5,513.2,204.9,509.4,211.4L509.4,211.4z"/>
				<path id="path8274" inkscape:connector-curvature="0" sodipodi:nodetypes="cscc" class="st3" d="M424.8,357.1
					c4.6,14,12.6,25,23.7,25c9.5,0,19.1-4,28.4-11C476.9,371.2,460,337.8,424.8,357.1L424.8,357.1z"/>
				<path id="path8276" inkscape:connector-curvature="0" sodipodi:nodetypes="cccc" class="st1" d="M434.5,374.3
					c10.2,0.5,26.2-6.4,26.2-6.4s-9.5,10.2-23.4,10.4L434.5,374.3z"/>
			</g>
			<path id="path8278" inkscape:connector-curvature="0" sodipodi:nodetypes="ccccc" class="st1" d="M-58.5,390.1l-18.9,42.4
				L-91,470.7c25.4,31.4,91.7-7.3,91.7-7.3L-58.5,390.1z"/>
			<path id="path8280" inkscape:connector-curvature="0" sodipodi:nodetypes="ccccscc" class="st1" d="M1.8,460.5
				c-42.2,21-66.5,21.2-79.9,16.7c-6.7-2.3-10.8-5.7-13.3-8.5c-2.5-2.8-3.2-4.8-3.2-4.8s-1.3,13,16,19c15.5,5.3,40.1,4.5,83.1-17
				L1.8,460.5z"/>
			<path id="path8282" inkscape:connector-curvature="0" sodipodi:nodetypes="csccsccc" class="st1" d="M-52.3,374.4
				c-7.5,11.8-13.1,25.1-17.7,37.5c-4.6,12.6-10.5,18.9-8.6,23.7c0,0,2.3-1.6,5-5c2.8-3.4,6.2-8.7,9.2-16.6
				c4.6-12.2,10.1-25.1,17.2-36.4L-52.3,374.4L-52.3,374.4z"/>
		</g>
		<g id="g8284" transform="translate(-1537.64,348.15)">
			<path id="path8286" inkscape:connector-curvature="0" sodipodi:nodetypes="csscccccc" class="st1" d="M889.8,204.3
				c6,7.1,10.7,9.6,14,8.9c10.4-2.1,7.8-35.1-9.2-55.9c-7-8.5-18.4-15.2-29.5-15.8c0,0,15.1-10.3,7.2-25.6
				c-5,7.4-10.7,10.7-16.5,11.2c0,0-14.4-36.6-50.4-46.4l6.7,68.7L889.8,204.3z"/>
			<path id="path8288" inkscape:connector-curvature="0" sodipodi:nodetypes="csccc" class="st4" d="M902.7,169.9
				c-2.2-4.4-4.8-8.8-8-12.6c-7-8.5-18.4-15.2-29.5-15.8c0,0,15.1-10.3,7.2-25.6c-22,32.6-56.2-15.4-68.5-17.7"/>
			<path id="path8290" inkscape:connector-curvature="0" sodipodi:nodetypes="cc" class="st4" d="M855.6,127.1
				c-14.5-36.7-51.5-46.8-51.5-46.8"/>
		</g>
		<g id="g8292" transform="matrix(0.96062,-0.27787,0.27787,0.96062,-1599.44,600.86)">
			<path id="path8294" inkscape:connector-curvature="0" sodipodi:nodetypes="ccsssssc" class="st1" d="M824.8,244.7
				c2.8,12.1,25,60.4,85.6,40.8c8.9,20.2,4.5,30.9,6.5,54.4c1.8,21.4,19,36.1,36.9,43.7c18.6,7.9,38,8.4,42.2,1.2
				c4.2-7.1,5.8-15.6,5.5-24.9c-1.6-52.5-64.9-130.3-90-133.1c-18.2-2-27,12.6-54.8-0.7"/>
			<path id="path8296" inkscape:connector-curvature="0" sodipodi:nodetypes="cscscsccccccccccscsccccccccccc" class="st1" d="
				M911.7,223.8c-9.9-1.1-17.2,2.3-24.7,3.9c-7.5,1.6-15.7,3.7-29.1-2.8c0,0,7.5,12.8,30.4,8.6c8.4-1.6,14.6-4.7,22.8-3.8
				c4.9,0.6,13.5,5.5,22.8,13.8s19.5,19.8,29,32.9c18.9,26.1,34.8,58.4,35.6,83.5l0,0L955,380.8l0,0c-17.3-7.4-33.5-21.3-35.1-41.2
				c-1-11.5-0.4-20-0.6-28.3c-0.3-8.4-1.5-16.6-6.1-27.1l-1.1-2.5l-2.6,0.8c-29.5,9.5-48.8,2.6-61.6-8s-18.9-25.4-20.1-30.7
				c0,0-5.6,16.8,16.3,35.3c13.6,11.5,34.9,18.5,64.5,9.8c3.4,8.5,4.5,15.2,4.7,22.5c0.3,7.9-0.3,16.6,0.7,28.6
				c1.9,22.9,20.1,38.3,38.8,46.2l51.8-26.6l0,0c-0.8-27.4-17.4-60.2-36.8-86.8c-9.7-13.3-20.1-25.1-29.8-33.8
				C928.1,230.4,919.4,224.6,911.7,223.8L911.7,223.8L911.7,223.8z"/>
			<g id="g8298" transform="matrix(0.99585,0.09104,-0.09104,0.99585,137.99,-96.604)">
				<path id="path8300" inkscape:connector-curvature="0" sodipodi:nodetypes="cscc" class="st5" d="M856.1,404
					c19.2,6.2,38.6,4.9,42.1-2.7c3.5-7.5,4.3-16.1,3.2-25.3C875.7,366.4,857.9,388.7,856.1,404z"/>
				<path id="path8302" inkscape:connector-curvature="0" sodipodi:nodetypes="cccc" class="st1" d="M881.3,407.4l5.4-22.5
					c0,0,2.1,12.3-2,23.4L881.3,407.4z"/>
			</g>
			<g id="g8304" transform="matrix(0.97759,0.21055,-0.21055,0.97759,189.41,-186.35)">
				<path id="path8306" inkscape:connector-curvature="0" sodipodi:nodetypes="csscc" class="st1" d="M797.4,303.3
					c-2.3,18-5.5,31.3-10,46.4c-5.6,18.9,20.5,28.9,30.1,9.4c5.5-11.1,3.2-36.6,3.2-36.6S815.1,297.5,797.4,303.3L797.4,303.3z"/>
				<path id="path8308" inkscape:connector-curvature="0" sodipodi:nodetypes="cccsc" class="st1" d="M806.5,320.5
					c0,0,1.1,21.9-10.4,47l3.6,1.7c3.7-8,6.1-15.8,7.7-22.6C810.6,333.3,809.3,324.6,806.5,320.5z"/>
				<path id="path8310" inkscape:connector-curvature="0" sodipodi:nodetypes="cccscsccsc" class="st1" d="M796.8,302.8
					c-2.3,17.7-7.3,31.1-11.8,46.3c-3.2,10.6,2.8,19.4,11,22.1c8.1,2.8,18.6-0.2,23.8-11c4.8-9.9,3.3-34.8-1.5-37.5
					c0,0,0.6,6.2,0.4,13.9s-1.1,16.6-3.4,21.4c-4.3,8.8-11.8,10.5-17.7,8.4c-5.9-2-10.2-7.7-7.8-16C795,332.7,803,305.6,796.8,302.8
					L796.8,302.8z"/>
			</g>
		</g>
		
			<g id="g8312" transform="matrix(1.0859,-0.0829,0.0829,1.0859,-503.34,180.65)" inkscape:transform-center-x="157.51" inkscape:transform-center-y="43.632">
			<path id="path8314" inkscape:connector-curvature="0" sodipodi:nodetypes="cccscccccccccccc" class="st1" d="M-576.9,185.9
				c-2.2,0-4.5,0.1-6.8,0.2c0,0-0.2,0.5-0.3,0.5c-132.1,1-129.2,137.9-129.2,163.2c0,46.8-32.5,46.4-32.5,46.4s25.5,13.8,47.7,3
				c52.9,11.7,92.2-37.8,54.1-91.9c0,0,13.2,9.3,27.1-3.9c0,0-19.3-1.4-23.2-25c-2.8-23.7,21.9-38.7,37.9-45.2
				c26.9,20,24.8,36.2,21.3,50.4c0,0,16.2-3.1,12.6-27.8c18.9,77.9,68,65.2,61.6,25.2c5,27.5,35.9,31.8,35.9,31.8
				s-37.5-39.3-2.5-64.6C-473.3,248.3-507.9,185.6-576.9,185.9L-576.9,185.9z"/>
			<path id="path8316" inkscape:connector-curvature="0" sodipodi:nodetypes="ccccccccccccccccccccccscsscscsccsc" class="st1" d="
				M-610,231.4c0,0,9.2,4.5,17.2,13.3c8,8.8,14.7,21.5,10.1,38.4l-0.8,3.1l3.2-0.6c0,0,4.7-0.9,8.7-5.2c2.3-2.5,4.2-6.2,5.2-11.2
				c9.9,30.3,24.9,44,38.4,45.5c7.6,0.9,14.5-2.4,18.9-8.5c2.5-3.5,4.1-8.1,4.8-13.2c4.2,7.7,10.7,12.9,16.7,16.2
				c8.7,4.7,16.7,5.8,16.7,5.8l5.7,0.8l-4-4.2c0,0-9.1-9.6-14-22.1c-2.4-6.3-3.7-13.2-2.4-19.9c1.3-6.8,5.2-13.5,13.6-19.6l-2.3-3.2
				c-9.1,6.6-13.7,14.3-15.2,22c-1.5,7.7,0,15.4,2.6,22.1c3.4,8.7,7.7,14.7,11,18.8c-2.7-0.8-6.2-2-9.8-4
				c-5.7-3.1-11.8-7.7-15.4-14.9c-3.8-7.6-8.4-25-11.8-31.5c0,0,5,22.5,5,31.4c0,5.5-2,10-4.4,13.4c-3.6,5.1-9,7.6-15.2,6.9
				c-12.5-1.4-29.3-16.8-38.6-55.3c-1.5-6-5-10.4-5-10.4s0.2,5.2,1.1,11.1c1.7,11.9-1.3,18.1-4.5,21.5c-1.2,1.3-2.4,2.1-3.5,2.7
				c3.1-16.6-3.6-29.8-11.7-38.4C-596.4,235.2-600.3,231.2-610,231.4L-610,231.4z"/>
			<path id="path8318" inkscape:connector-curvature="0" sodipodi:nodetypes="ccccccccccccccccc" class="st1" d="M-605,233.2
				c-26.1,10.1-36.9,26-37.2,40.6c-0.3,13.7,8.5,25.8,21.2,30.4c-10.3,7.7-19.4,3-29.5-1.4c0,0,1.1,3.8,5,5.7
				c18.8,26.6,18.2,51.6,6.9,68.5c-11.3,16.9-33.6,26-59.5,20.1l-0.9,3.9c27.3,6.2,51.4-3.4,63.7-21.8c11.5-17.2,12.2-41.9-3.6-67.6
				c1,0.3,2,0.5,3.1,0.7c5.5,0.7,13.1-0.5,20.4-7.5l2.7-2.6l-3.7-0.8c-12.8-2.8-22.2-14.4-21.9-27.6c0.3-13.1,10.1-28.2,37.1-37.9
				L-605,233.2z"/>
			<path id="path8320" inkscape:connector-curvature="0" sodipodi:nodetypes="ccsscscscccccscccc" class="st1" d="M-582.5,184.6
				c-67.5,0-101.1,35.2-117.3,73.3c-16.2,38.1-15.4,79.3-15.4,91.9c0,22.9-7.9,33.6-15.4,39.1c-6.7,5-14.3,6.1-22.1,5.5
				c14.6,9.9,34.2,12.1,47.4,9.3c10.7-2.3,21.6-8.8,30.2-22.1c4.9-7.6,9.3-17.3,12.1-30c4.2-19.3,3.1-30.9,0.6-33.4
				c-1.8,29.4-8,48.8-16,61.2c-8.1,12.5-18,18.1-27.8,20.3c-13,3-25.2-0.3-32.3-2.9c3-0.9,6.5-2.2,10.2-4.8
				c8.6-6.1,17.1-18.5,17.1-42.4c0-12.8-0.7-53.2,15.1-90.4c15.8-37.1,47.5-70.9,113.6-70.9L-582.5,184.6L-582.5,184.6z"/>
			<path id="path8322" inkscape:connector-curvature="0" sodipodi:nodetypes="csc" class="st6" d="M-742.5,397.4
				c0,0,66.5-0.1,59.6-78.9c-7.9-90.8,54.7-124.6,54.7-124.6"/>
			<path id="path8324" inkscape:connector-curvature="0" sodipodi:nodetypes="cccsc" class="st1" d="M-656.9,338.5
				c0,0,1.5,44.6-26.8,60.8l1.5,2.6c15.2-8.7,22-24.6,25.5-38.3C-652.4,347.1-656.9,338.5-656.9,338.5L-656.9,338.5z"/>
			<path id="path8326" inkscape:connector-curvature="0" sodipodi:nodetypes="cssc" class="st6" d="M-653.2,394.1
				c0,0,7.1-10.5,7.1-28.6c0-39.6-15-51.4-15-77.9c0-78.4,82.9-101.1,82.9-101.1"/>
			<path id="path8328" inkscape:connector-curvature="0" sodipodi:nodetypes="sccccs" class="st1" d="M-535.6,259.2
				c2.5,16.9,9.1,36.1,25.3,44.5l1.4-2.7c-14.8-7.7-21.2-25.8-23.7-42.2c-2.5-16.4-1.2-30.9-1.2-30.9
				C-536.6,230.2-538.3,241.5-535.6,259.2L-535.6,259.2z"/>
			<path id="path8330" inkscape:connector-curvature="0" sodipodi:nodetypes="csccc" class="st1" d="M-544.2,253.7
				c-3.2,3.7,0.6,20.1,6.4,31.1c4.7,8.9,12,17.8,22.7,24.5l1.6-2.5C-542.1,289-544.2,253.7-544.2,253.7z"/>
			<path id="path8332" inkscape:connector-curvature="0" sodipodi:nodetypes="cccc" class="st7" d="M-417.5,266.3l-22.3,13.4
				c-63.1-27.9-45.5-79.3-141.6-93.9C-488.2,174.7-495.8,242.2-417.5,266.3L-417.5,266.3z"/>
		</g>
		<g id="g8334" transform="matrix(0.75069704,0.66064662,-0.66064662,0.75069704,-2311.1608,-4361.3859)">
			<g id="g8336" transform="matrix(0.83439552,-0.55116614,0.55116614,0.83439552,-615.72368,2266.5819)">
				<path id="path8338" inkscape:connector-curvature="0" sodipodi:nodetypes="ccc" class="st0" d="M3713,3153c0,0-19-1.9-24.8-29.9
					c-31.9,32.8,14.5,51.5,14.5,51.5"/>
				<path id="path8340" inkscape:connector-curvature="0" sodipodi:nodetypes="cscc" class="st1" d="M3682.7,3152.6
					c-11.9-1.6-42.6,21.8-30.2,38.6c6.9,9.4,35.4-6.4,38.3-16.1C3690.7,3175.1,3700.6,3156.4,3682.7,3152.6z"/>
				<path id="path8342" inkscape:connector-curvature="0" sodipodi:nodetypes="cc" class="st2" d="M3652.1,3189.3
					c18.2-39.6,52.1-30.3,52.1-30.3"/>
				<path id="path8344" inkscape:connector-curvature="0" sodipodi:nodetypes="ssssscscccsccssccs" class="st1" d="M3670.2,3153.6
					c-4.6,2.3-9.3,5.8-13.3,9.8c-4,4.1-7.3,8.8-8.7,13.8s-1,10.6,2.5,15.3c2.3,3.2,6.4,4.1,10.5,3.7s8.6-1.8,12.9-3.9
					s8.5-4.7,11.9-7.6s6-5.8,6.9-9l-4.3-1.3c-0.5,1.6-2.5,4.3-5.5,6.8s-6.9,5.1-10.9,7s-8.1,3.2-11.4,3.5s-5.4-0.4-6.5-1.9
					c-2.7-3.6-3-7.4-1.8-11.4s4-8.2,7.6-11.9s8-6.9,12.2-9s9.8-3.2,11.9-3C3680.3,3149.5,3674.3,3151.5,3670.2,3153.6z"/>
				<path id="path8346" inkscape:connector-curvature="0" sodipodi:nodetypes="cssc" class="st0" d="M3706,3165.4
					c-7.8,0.5-19.3,1.4-28.9,12.8c-9.1,10.8-13.2,26.6-5.2,37.5c10,13.6,27.1-8.4,39.8-31.4"/>
			</g>
			<g id="g8348" transform="matrix(0.7634726,-0.64584022,0.64584022,0.7634726,4427.3544,1763.2075)">
			</g>
		</g>
		<g id="g8350" transform="translate(-1537.64,348.15)">
			<path id="path8352" inkscape:connector-curvature="0" sodipodi:nodetypes="ssccss" class="st8" d="M509.4,211.4
				c-24.4,41.5-49,65.2-81.6,88.6c-9.4,6.8-10.2,35.5-3,57.1c0.1,0.3,50.9,14.5,52.1,14c36.9-27.4,69-100,66.3-143.6
				C542.7,219.5,513.2,204.9,509.4,211.4L509.4,211.4z"/>
			<path id="path8354" inkscape:connector-curvature="0" sodipodi:nodetypes="cscc" class="st8" d="M424.8,357.1
				c4.6,14,12.6,25,23.7,25c9.5,0,19.1-4,28.4-11C476.9,371.2,460,337.8,424.8,357.1L424.8,357.1z"/>
			<path id="path8356" inkscape:connector-curvature="0" sodipodi:nodetypes="cccc" class="st1" d="M434.5,374.3
				c10.2,0.5,26.2-6.4,26.2-6.4s-9.5,10.2-23.4,10.4L434.5,374.3z"/>
		</g>
		<path id="path8358" inkscape:connector-curvature="0" sodipodi:nodetypes="sscccccccs" class="st1" d="M-864.3,651.5
			c102.1,13.7,165.7-26.9,167.6-85.3c1.7-51.1-17.1-128.3-17.1-128.3l-118.7-110.1c-3.6,59.3,29.6,157,29.2,199.2
			c-143.2-82.2-177.4,16.1-178.6,19.4l-18.9,42.4l-13.6,38.2c25.4,31.4,91.7-7.3,91.7-7.3C-911.6,633.5-894,647.5-864.3,651.5
			L-864.3,651.5z"/>
		<path id="path8360" inkscape:connector-curvature="0" sodipodi:nodetypes="csscc" class="st1" d="M-980.6,547.4
			c10.1-4.6,16-9,30.3-5.5c27.6,6.7,25.1,50.6,62,54.6c61.1,6.6,71.4-77.4,71.4-77.4S-939,446.5-980.6,547.4z"/>
		<path id="path8362" inkscape:connector-curvature="0" sodipodi:nodetypes="ccccscc" class="st1" d="M-921.6,616.8
			c-42.2,21-66.5,21.2-79.9,16.7c-6.8-2.3-10.9-5.7-13.3-8.5c-2.5-2.8-3.2-4.8-3.2-4.8s-1.3,13,16,19c15.5,5.3,40.1,4.5,83.1-17
			L-921.6,616.8z"/>
		<path id="path8364" inkscape:connector-curvature="0" sodipodi:nodetypes="csccsccc" class="st1" d="M-975.7,530.6
			c-7.5,11.8-13.2,25.1-17.7,37.4c-4.6,12.7-10.5,18.9-8.6,23.8c0,0,2.2-1.6,5-5s6.2-8.8,9.2-16.6c4.6-12.2,10.1-25.2,17.2-36.4
			L-975.7,530.6L-975.7,530.6z"/>
		<path id="path8366" inkscape:connector-curvature="0" class="st1" d="M-902.4,491.9c-15.7,0.1-31.5,3.3-46.2,11.5
			c-18.5,10.3-30,29.6-38.5,48.9l8.4-3.9c8.2-3.4,19.3-6.7,27.9-4.6c6.4,1.6,11.1,5.3,15.1,10.2c4.1,4.9,7.5,11.1,11.2,17.3
			c7.5,12.4,16.8,25.1,36,27.2c15.7,1.7,28.4-2.5,38.3-9.6c9.9-7.2,17.1-17.4,22.3-27.7c7.9-15.5,11.3-31.5,12.5-38.3
			c6.3,3.4,10,5.8,10,5.8l3.3-5c0,0-21-13.7-49.7-23.1c-14.4-4.7-30.8-8.4-47.5-8.7C-900.3,491.9-901.3,491.9-902.4,491.9
			L-902.4,491.9z M-902.2,497.9c3.8,0,7.5,0.2,11.3,0.5c-1.3,1.6-2.6,3.6-3.5,6.1c-1,2.9-1.3,6.3-0.3,10c-2.7,0-8.1-0.5-16.4-4
			c7.2,5,11,10.1,12.8,13.2c-4-0.3-8.3-0.3-12.6,0.6c-1.7,0.3-3.4,0.8-5,1.4c-9.9-6.3-13.1-12.7-13.9-17.5c-0.5-2.8-0.3-4.9,0-6.3
			C-920.8,499.2-911.5,498.1-902.2,497.9L-902.2,497.9z M-885.9,498.9c9,1.1,17.8,3.1,26.1,5.5c-0.5,1.5-0.9,3.4-0.6,5.8
			c0.1,1.4,0.5,3,1.2,4.6c-2.9-0.1-8.2-0.6-15.8-3.5c6.9,4.8,11.5,9.4,13.8,12c-8.9-0.7-15.3,0-19.6,1.7c-0.6,0.3-1.2,0.5-1.7,0.8
			c-9.6-8.6-9.8-15.2-8.1-19.9C-889.5,502.5-887.2,500.1-885.9,498.9L-885.9,498.9z M-934,503.3c-0.2,1.6-0.2,3.5,0.2,5.6
			c0.4,2,1.1,4.2,2.3,6.5c-3-0.1-8.1-0.8-15.6-3.8l0,0c7.4,4.7,11.7,9.6,13.9,12.6c-6.4,0.5-11.1,2.3-14.5,4.5c-1.8-1-7.9-5-10.1-11
			c3.7-3.6,7.7-6.7,12.1-9.1c3.8-2.2,7.7-3.9,11.7-5.4L-934,503.3z M-856.1,505.6c0.8,0.2,1.6,0.4,2.4,0.7
			c8.3,2.7,15.9,5.8,22.5,8.8c-0.9,0.1-1.9,0.3-2.8,0.6c-5,1.2-10,3.6-13.7,7.3c-6.5-5.5-8.4-10-8.7-13.3
			C-856.6,507.9-856.3,506.5-856.1,505.6z M-826.3,518.7c1.5,0,2.8,0.2,3.9,0.5c1.1,0.6,2.2,1.1,3.2,1.7c-0.8,5.4-4,22.1-12.2,38.3
			c-9.8-7.8-14.7-14.5-16.4-19.8c-1.8-5.6-0.5-9.7,2.4-13s7.6-5.7,12.3-6.9C-830.7,519-828.4,518.7-826.3,518.7z M-960.8,520.8
			c2.5,5.4,7.1,9,9.8,10.6c-3.1,3.1-4.4,6.2-4.9,7.8c-6.9-0.3-14,1.6-20,3.9C-971.7,534.9-966.7,527.3-960.8,520.8L-960.8,520.8z
			 M-868.3,527c4.5-0.1,10.1,0.3,17,1.4c-1.5,3.5-1.8,7.7-0.3,12.2c0.4,1.1,0.8,2.3,1.4,3.4c-2.3,0.1-8.1-0.2-17.5-4
			c8.5,5.5,12.8,11.2,14.5,14.1c-8.1-0.7-15,0.8-19.6,4.2l-0.3,0.3c-0.9-1-2.5-2.9-4.6-5.9c-2.9-4.1-6-9.5-6.8-14
			c-0.5-2.3-0.4-4.2,0.4-5.8c0.7-1.7,2.1-3.1,4.8-4.2C-876.8,527.7-873.2,527-868.3,527L-868.3,527z M-903.8,527.6
			c6.5-0.1,13.4,1,17.2,1.7c-0.5,0.6-0.8,1.2-1.1,1.9c-1.2,2.6-1.3,5.4-0.8,8.2c0.4,2,1,3.9,1.9,5.8c-2.8-0.3-8.2-1.4-16.1-5.4
			c7.8,6,11.6,11.9,13.2,15c-4.6-0.7-8.6-0.8-11.8-0.3c-3.4,0.6-6.1,1.7-8.3,3.3c-8.2-11-10.5-18.2-9.9-22.3
			c0.3-2.2,1.3-3.6,2.8-4.8c1.6-1.2,3.9-2,6.5-2.5C-908.2,527.8-906,527.6-903.8,527.6L-903.8,527.6z M-930,528.1
			c2.8,0,5.9,0.2,9.5,0.7c-1.5,1.6-2.6,3.7-3,6.1c-0.4,3.2,0.3,7,2.4,11.6c-2.6-0.2-8.1-1.1-16.6-5.4c7.9,6,11.6,12,13.2,15
			c-1.6-0.1-3.2-0.2-4.7-0.1c-1.1-1.6-2.2-3.1-3.4-4.6c-4.4-5.3-9.8-9.6-17.2-11.4c-0.7-0.2-1.4-0.3-2-0.4c0.6-1.6,1.9-4.2,5-6.6
			C-943.6,530.5-938.4,528.1-930,528.1L-930,528.1z M-857.5,558.1c6.8-0.2,15.2,1.4,24.1,5c-2.1,3.7-4.4,7.3-7.1,10.7
			c-2.9-0.1-9.6-0.8-18.9-4.5c7.6,4.8,10.9,9.2,12.3,11.8c-1.7,1.6-3.5,3.1-5.4,4.5c-2.6,1.9-5.4,3.5-8.3,4.9
			c-7.8-7.4-11.7-13.7-12.9-18.5c-1.2-4.9,0.1-8.1,3.3-10.5C-867.6,559.4-863.1,558.2-857.5,558.1L-857.5,558.1z M-896.2,558.2
			c5.1,0,11.6,1.2,19.9,4c-1.6,2.9-2.2,6.3-1.4,10.1c-2.6,0-8.2-0.5-17-4.1c5,3.2,8.5,6.6,10.9,9.4c-4.7,0.8-8.2,3.3-10.6,6
			c-2.6,2.9-3.9,6.2-4.6,8.2c-6-2.6-10.5-6.5-14.3-11.2h0.2c0,0-1.8-9,1.9-15.3c1.8-3.2,4.8-5.8,10.5-6.8
			C-899.3,558.3-897.8,558.2-896.2,558.2L-896.2,558.2z M-926.6,560c4.4,0.3,9.6,1.2,12.8,1.9c-0.3,0.4-0.6,0.9-0.9,1.3
			c-2.2,3.9-2.8,8.1-2.9,11.5c-1.2-1.8-2.3-3.6-3.5-5.5C-922.9,566.1-924.7,563-926.6,560L-926.6,560z M-879.7,581.1
			c1.8,0,4,0.3,6.4,1c2.1,3.2,4.8,6.5,8.4,10c-6.7,2.4-14.4,3.4-23.2,2.4c-2.6-0.3-5-0.8-7.1-1.4c0.5-1.6,1.7-4.4,3.9-6.9
			C-888.9,583.4-885.4,581-879.7,581.1L-879.7,581.1z"/>
		<path id="path8368" inkscape:connector-curvature="0" sodipodi:nodetypes="cccccccccccscscscccccc" class="st1" d="M-835.1,321.2
			l-0.4,6.3c-2.1,34.1,7.7,79.6,16.4,120.5c4.4,20.5,8.5,39.8,10.8,55.7c2.4,16,2.7,28.7,0.3,35.1l5.7,2.1c3.2-8.7,2.4-21.8,0-38
			c-2.4-16.3-6.6-35.6-10.9-56.1c-8.2-38.3-16.9-80.4-16.4-112.4l113.1,105c0.6,2.5,18.5,77.2,16.9,126.6
			c-1,28.2-16.6,51.8-44.7,67.2c-28.2,15.3-69,22.1-119.6,15.3c-31.8-4.3-48.9-20-58.5-34.8c-9.5-14.8-11.2-28.3-11.2-28.3
			c-4.2,13,6,32.5,13.2,40.8c11.1,12.8,28.7,24.6,55.7,28.2c51.5,6.9,93.6,0.2,123.2-15.9c29.7-16.2,46.9-42,47.9-72.3
			c1.6-51.9-17.3-129.1-17.3-129.1l-0.2-0.9L-835.1,321.2z"/>
		<g id="g8370" transform="translate(-1537.64,348.15)">
			<path id="path8372" inkscape:connector-curvature="0" sodipodi:nodetypes="cssc" class="st1" d="M894.5-61.3
				c0,0,24.8-29.1,26.9-65.4c2.2-38.6-28.2-81.9-50.6-81.7c-36.3,0.4-18.4,111-18.4,111"/>
			<path id="path8374" inkscape:connector-curvature="0" sodipodi:nodetypes="cccc" class="st1" d="M920.3-145.5
				c-40-57.6-71.8-20.9-71.8-20.9s-0.3-41.7,21.9-42.1C900.2-207,920.3-145.5,920.3-145.5L920.3-145.5z"/>
			<path id="path8376" inkscape:connector-curvature="0" sodipodi:nodetypes="cssc" class="st8" d="M894.5-61.3
				c0,0,24.8-29.1,26.9-65.4c2.2-38.6-28.2-81.9-50.6-81.7c-36.3,0.4-18.4,111-18.4,111"/>
		</g>
		<path id="path8378" inkscape:connector-curvature="0" sodipodi:nodetypes="cc" class="st9" d="M-666.6,245.4
			c58,15.6,65.1,100.4,65.4,112.2"/>
		<path id="path8380" inkscape:connector-curvature="0" sodipodi:nodetypes="cssscccccccc" class="st1" d="M-819.4,410.5
			c0,0-6.7,36.1,19.5,51.8c19.2,11.6,39.5,24.4,39.5,60.7c0,20.1-18,44.2-41.2,44.2c-48.2,0-69.9-100.3-70.8-106.5
			c-3.1,3.2-53.7,8.3-43.3-57.4c-22.1-11.3-21.2-40.3-21.2-40.3c2.8-62.6,67.3-91.8,67.3-91.8c-21.5-20,4.6-44.9,4.6-44.9
			c-8.6,37.7,27.8,41.4,27.8,41.4l6.7,90.5L-819.4,410.5z"/>
		<path id="path8382" inkscape:connector-curvature="0" class="st1" d="M-604.9,337.3c-0.6,0-1.3,0-2,0.1l1.2,6.4
			c4.4-4,14.6-0.9,14.6-0.9S-595,337.1-604.9,337.3z M-609.1,349l0.9,6.4c4.5-3.7,14.5,0,14.5,0S-597.6,348.6-609.1,349z"/>
		<path id="path8384" inkscape:connector-curvature="0" sodipodi:nodetypes="cccccccc" class="st1" d="M-628.1,455.2
			c-38.4,13.8-101.7,0.4-101.7,0.4s-60.2,5.6-100.6-96.9l19.8-102.7l141.1-10.4c61.2,13.4,66.6,111.2,66.6,111.2l-43.8,15.5
			C-653,436.1-628.1,455.2-628.1,455.2L-628.1,455.2z"/>
		<path id="path8386" inkscape:connector-curvature="0" sodipodi:nodetypes="cccc" class="st1" d="M-606.1,333.6
			c0.7,17.8-9.9,22.5-9.9,22.5c-8.7-2.9-36.4-22.1-22.1-83.9C-621.4,271.5-606.1,333.6-606.1,333.6z"/>
		<path id="path8388" inkscape:connector-curvature="0" sodipodi:nodetypes="cccc" class="st1" d="M-777.9,331
			c2.5-12.5,76.8-78.8,114.5,42.2c4.8,48-52.4,51.8-77.1,29.3C-740.5,402.5-778.9,358.7-777.9,331z"/>
		<path id="path8390" inkscape:connector-curvature="0" sodipodi:nodetypes="cccssscc" class="st1" d="M-730,455.5
			c0,0,56.7,15.5,102.9-0.5c-29.8-24-7.8-71.3-7.8-71.3s4.6,17.3,19.1,17.7c12,0.4,23.4-11.9,27.5-23.2c2.2-6.3,2.8-18.6-4-20.7
			c-6.9-2-29.1,10.4-45.5-24C-659.6,425.7-730,455.5-730,455.5z"/>
		<g id="g8392" transform="matrix(0.46583,-0.09126,0.15422,0.81732,-1002.44,389.55)">
			
				<ellipse id="ellipse8394" transform="matrix(-0.9954 9.558140e-02 -9.558140e-02 -0.9954 1586.162 -53.5114)" class="st1" cx="794.4" cy="11.2" rx="29.1" ry="40.4"/>
			<g>
				<defs>
					
						<ellipse id="SVGID_1_" transform="matrix(0.9585 -0.2852 0.2852 0.9585 29.7809 226.9944)" cx="794.4" cy="11.2" rx="57.6" ry="140.3"/>
				</defs>
				<use xlink:href="#SVGID_1_"  style="overflow:visible;fill:#020202;"/>
				<clipPath id="SVGID_00000052092074371827948000000007567869426826983584_">
					<use xlink:href="#SVGID_1_"  style="overflow:visible;"/>
				</clipPath>
				<g id="g8396" style="clip-path:url(#SVGID_00000052092074371827948000000007567869426826983584_);">
					<path id="path8398" inkscape:connector-curvature="0" class="st1" d="M790.5,21.1l51,12.5l-10.8,14L790.5,21.1z"/>
					<path id="path8400" inkscape:connector-curvature="0" class="st1" d="M791,20.4l46.2-1.8l-2.5,15.5L791,20.4z"/>
				</g>
				<use xlink:href="#SVGID_1_"  style="overflow:visible;fill:none;stroke:#020202;stroke-miterlimit:10;"/>
			</g>
			
				<ellipse id="ellipse8402" transform="matrix(-0.9971 7.634457e-02 -7.634457e-02 -0.9971 1585.0844 -35.6571)" class="st1" cx="793.2" cy="12.5" rx="18.9" ry="30.6"/>
			
				<ellipse id="ellipse8404" transform="matrix(-0.9923 -0.1238 0.1238 -0.9923 1571.2478 139.021)" class="st1" cx="789.9" cy="20.7" rx="4.3" ry="5"/>
			
				<ellipse id="ellipse8406" transform="matrix(-0.9999 -1.690848e-02 1.690848e-02 -0.9999 1564.2906 5.9618)" class="st1" cx="782.2" cy="-3.6" rx="10.5" ry="15.8"/>
		</g>
		<path id="path8408" inkscape:connector-curvature="0" sodipodi:nodetypes="cccccccc" class="st1" d="M-800.3,285l12.6-43.5
			l125-6.2c10.2,11.2,16.2,58,20.1,76c12.6,56.4,42.8,45.1,42.8,45.1s-13.8,14.7-31.8,14.5c-39.3-2.3-40.2-92.3-118.6-95.8
			C-777.5,274-800.3,285-800.3,285L-800.3,285z"/>
		<g id="g8410" transform="translate(-1537.64,348.15)">
			<path id="path8412" inkscape:connector-curvature="0" sodipodi:nodetypes="cccc" class="st1" d="M920.6,52.6
				c-13.4,28.8-10.7,53.7-10.7,53.7s-27.5-19.2-7.3-69.6C902.6,36.7,908.5,52.7,920.6,52.6z"/>
			<path id="path8414" inkscape:connector-curvature="0" sodipodi:nodetypes="ccc" class="st1" d="M895.5,69
				c16.2,10.6,10.9,34.1,10.9,34.1S893.6,91.5,895.5,69L895.5,69z"/>
		</g>
		<path id="path8416" inkscape:connector-curvature="0" sodipodi:nodetypes="csccccccc" class="st1" d="M-776.2,556.4
			c34.9,6.3,43.4,36.9,40.4,58.3c-3.7,27.3,3.2,52.4,41.6,51.3c-11.9-31.6,34.6-32,33.9-80c12.2,43,27.3,2.3,12.5-33.7
			c6,7.1,10.7,9.6,14,8.9c0.4-12.5-31-77.6-86.5-58.5c-26.8-17-47.7-11.3-47.7-11.3C-744.9,528.5-776.2,556.4-776.2,556.4z"/>
		<path id="path8418" inkscape:connector-curvature="0" sodipodi:nodetypes="cc" class="st11" d="M-728.2,498.8
			c67.2,61.9-35.7,121.7,31.2,167.3"/>
		<path id="path8420" inkscape:connector-curvature="0" sodipodi:nodetypes="cc" class="st11" d="M-720.2,503
			c90.2,36.4,0.5,97.4,35.7,131.7"/>
		<path id="path8422" inkscape:connector-curvature="0" sodipodi:nodetypes="ccc" class="st4" d="M-633.9,560.6
			c-7.2-42.6-50.9-72.1-87-57.7c-24.5-16.9-45.5-11-45.5-11"/>
		<path id="path8424" inkscape:connector-curvature="0" sodipodi:nodetypes="cscccssc" class="st4" d="M-776.2,556.4
			c34.9,6.3,43.4,36.9,40.4,58.3c-3.7,27.3,3.2,52.4,41.6,51.3c-11.9-31.6,34.6-32,33.9-80c12.2,43,27.3,2.3,12.5-33.7
			c6,7.1,10.7,9.6,14,8.9c8.5-1.7,8.4-23.8-1.1-43.3c-2.2-4.4-4.9-8.7-8-12.6"/>
		<path id="path8426" inkscape:connector-curvature="0" sodipodi:nodetypes="cccccccccccccccccscccccccc" class="st1" d="
			M-603.8,361.1c1.4,0,2.8-0.2,4.1-0.4c6.1-0.9,9.1,0,9.8,5.9c0.4,3.6-0.3,8-1.2,10.6c-1.9,5.1-5.5,10.7-10,14.8
			c-4.5,4-9.7,6.9-14.7,6.4c-14.3-1.3-18.8-21.4-18.8-21.4c-5.6,12-7.8,23.1-9,33.4c-1.7,13.9-1.6,30.6,10.7,43.2
			c-20.2,6-42.1,6.2-60,4.8c-21-1.7-36.8-3.9-37.1-2.9c-0.4,1.1,14.4,7.1,35.7,8.9c20,1.8,45.2,1.4,68.2-6.6l5.2-1.8l-4.3-3.4
			c-13.9-11.1-16.1-27.5-14.4-41.8c0.9-8.1,2.9-17,4.6-21.7c0,0,6.3,15.3,19.1,15.3c7,0,13.5-3.2,18.8-8s9.4-11,11.6-17.2
			c1.3-3.6,2-8.5,1.6-13.2c-1-9.1-6.2-11.5-13.1-11.4L-603.8,361.1z M-618.4,372.9c1.6,9,8.8,12.2,13.7,1.6
			C-612.8,381.5-618.4,372.9-618.4,372.9z"/>
		<path id="path8428" inkscape:connector-curvature="0" sodipodi:nodetypes="cscsc" class="st1" d="M-607.4,280.8
			c0,0-25.7-18.4-33.6-13.1c-11.6,7.8,4.1,64.1,4.1,64.1s-7.4-48.5,1.7-54.3C-629.2,273.5-618.4,282.5-607.4,280.8z"/>
		<path id="path8430" inkscape:connector-curvature="0" sodipodi:nodetypes="ccccsscscccsccsccccscccccc" class="st1" d="
			M-663,232.5l-2.3,2.9c4.2,3.4,7.5,11.6,10.2,22.3c2.6,10.6,4.6,23.6,7.1,36.7c2.5,13,5.3,26.2,9.7,37.2
			c4.3,10.9,9.6,17.9,14.7,22.2c9.2,7.5,19.4,4.7,19.4,4.7s-2.9,2.7-7.3,5c-6.7,3.5-14.9,6.4-24,4.8c-8.8-1.6-15.3-8-21.6-17
			c-6.3-9.1-12.2-20.8-19.7-32.3c-14.9-23.1-36.5-45.7-80.2-45.7c-25,0-45.1,10.7-45.1,10.7l1.3,3.5c0,0,21.1-10.5,43.8-10.5
			c42.4,0,62.4,21.4,77,44c7.4,11.4,13.3,23,19.8,32.4s13.9,16.7,24.1,18.6c21,3.8,37.4-12.7,41.6-17.4c-4.8-0.4-11.5,0.9-16.5,0.1
			c-3.1-0.5-6.4-1.6-9.7-3.8c-6-4.3-10.5-11.5-14.2-20.7c-4.1-10.6-7-23.5-9.4-36.5c-2.5-13-4.5-26-7.2-36.9
			C-654.2,246-657.4,237.1-663,232.5L-663,232.5z"/>
		<path id="path8432" inkscape:connector-curvature="0" sodipodi:nodetypes="ccc" class="st12" d="M-713.1,285.3c0,0,28.3,2,51.8,11
			c3.3-18.9,9-33.9,9-33.9"/>
		<path id="path8434" inkscape:connector-curvature="0" sodipodi:nodetypes="ccc" class="st12" d="M-681.8,314.5
			c0,0,17.6,2.7,30.2,9.9c1.1-11.2,6.4-25.6,6.4-25.6"/>
		<path id="path8436" inkscape:connector-curvature="0" sodipodi:nodetypes="ccc" class="st12" d="M-662.9,345.1c0,0,14.6,3,26,9
			c0.7-7.9,3.3-14.3,3.3-14.3"/>
		<g>
			<defs>
				<path id="SVGID_00000181066027619792395620000013717289080395288984_" d="M-777.9,331c2.5-12.5,76.7-78.7,114.5,42.3
					c4.8,48-52.4,51.7-77.2,29.2C-740.6,402.5-778.9,358.7-777.9,331L-777.9,331z"/>
			</defs>
			<use xlink:href="#SVGID_00000181066027619792395620000013717289080395288984_"  style="overflow:visible;fill:#020202;"/>
			<clipPath id="SVGID_00000112605057226350634000000017918115075763832453_">
				<use xlink:href="#SVGID_00000181066027619792395620000013717289080395288984_"  style="overflow:visible;"/>
			</clipPath>
			
				<g id="g8438" transform="matrix(1.1316,0,0,1.1316,-1631.24,351.95)" style="clip-path:url(#SVGID_00000112605057226350634000000017918115075763832453_);">
				
					<ellipse id="ellipse8440" transform="matrix(0.9565 -0.2917 0.2917 0.9565 31.2592 232.1659)" class="st1" cx="794.4" cy="11.2" rx="28.5" ry="41.2"/>
				<g>
					<defs>
						
							<ellipse id="SVGID_00000003810914380278807120000009135155338393611697_" transform="matrix(0.9565 -0.2917 0.2917 0.9565 31.2592 232.1659)" cx="794.4" cy="11.2" rx="134.7" ry="194.5"/>
					</defs>
					<use xlink:href="#SVGID_00000003810914380278807120000009135155338393611697_"  style="overflow:visible;fill:#020202;"/>
					<clipPath id="SVGID_00000058565853623625744780000000607534357551438731_">
						<use xlink:href="#SVGID_00000003810914380278807120000009135155338393611697_"  style="overflow:visible;"/>
					</clipPath>
					<g id="g8442" style="clip-path:url(#SVGID_00000058565853623625744780000000607534357551438731_);">
						<path id="path8444" inkscape:connector-curvature="0" class="st1" d="M790.5,21.1l51,12.5l-10.8,14L790.5,21.1z"/>
						<path id="path8446" inkscape:connector-curvature="0" class="st1" d="M791,20.4l46.2-1.8l-2.5,15.5L791,20.4z"/>
					</g>
					
						<use xlink:href="#SVGID_00000003810914380278807120000009135155338393611697_"  style="overflow:visible;fill:none;stroke:#020202;stroke-miterlimit:10;"/>
				</g>
				
					<ellipse id="ellipse8448" transform="matrix(0.9793 -0.2026 0.2026 0.9793 13.919 160.9394)" class="st1" cx="793.2" cy="12.5" rx="18.7" ry="31"/>
				
					<ellipse id="ellipse8450" transform="matrix(0.442 -0.897 0.897 0.442 427.4644 728.723)" class="st1" cx="799.4" cy="20.8" rx="5.2" ry="4.2"/>
				
					<ellipse id="ellipse8452" transform="matrix(2.343895e-02 -0.9997 0.9997 2.343895e-02 763.0382 784.5002)" class="st1" cx="783.1" cy="1.7" rx="15.8" ry="10.5"/>
			</g>
			
				<use xlink:href="#SVGID_00000181066027619792395620000013717289080395288984_"  style="overflow:visible;fill:none;stroke:#020202;stroke-miterlimit:10;"/>
		</g>
		<path id="path8454" inkscape:connector-curvature="0" sodipodi:nodetypes="ccccccccccccc" class="st1" d="M-770.6,324.8l-11.3,8.8
			c2.1,14.2,8.6,27.6,15.8,38.7c-13.4,2.7-10.3,17.4-10.3,17.4s1.8-10.4,13.8-12.3c1.2,1.6,2.3,3.2,3.5,4.7
			c-13.1,5.9-7.6,18.6-7.6,18.6s0.3-9.6,10.7-14.6c2,2.3,3.8,4.4,5.5,6.3c-8.8,8.5-4.3,17.1-4.3,17.1s1.7-9.7,7.4-13.7
			c4.1,5,7,7,7.5,7.3C-739.9,403.1-778.5,355.4-770.6,324.8L-770.6,324.8z"/>
		<path id="path8456" inkscape:connector-curvature="0" sodipodi:nodetypes="cscsc" class="st1" d="M-663.4,373.5
			c1.5-2.9-6.8-78.2-71.2-75.5c-41.9,1.7-60.3,46.7-58.3,51.5c0,0,24.9-39.9,64.8-40.3C-684.1,308.8-663.4,373.5-663.4,373.5z"/>
		<g id="g8458" transform="translate(-1537.64,348.15)">
			<path id="path8460" inkscape:connector-curvature="0" sodipodi:nodetypes="cscssc" class="st1" d="M708.5-0.2
				c-4.8,16.9,7.1,42.9,20.9,36.6c7.3-3.3,6.6-20,6.6-20s8.3,6,10.2,18.4c1.7,10.9-1.1,23.9-13.9,27.3
				c-24.8,6.6-31.3-20.6-31.7-27.7"/>
			<path id="path8462" inkscape:connector-curvature="0" sodipodi:nodetypes="cccscccccscsccscscccc" class="st1" d="M706.4-0.8
				c-2.6,9.2-0.7,20.3,3.7,28.6c2.2,4.2,5,7.7,8.5,9.8c3.5,2.1,7.9,3,11.9,0.8c7.3-4.1,7.8-12.1,7.7-16.8c2.3,2.7,5,7.1,6,13.5l0,0
				c0.8,5.1,0.5,10.7-1.4,15.2c-1.9,4.5-5.1,8-10.9,9.6c-11.6,3.1-18.1-1.4-22.5-7.8s-6.1-14.8-6.3-17.8c-3.5,3.6-2.2,13.3,2.6,20.4
				c5,7.5,14.2,13.1,27.4,9.6c7.1-1.9,11.6-6.6,13.9-12.2c2.3-5.6,2.5-11.9,1.7-17.7c-1.4-9.9-7.2-17-14.9-22.6
				c0.7,4.7,2,19.1-5.1,22.5c-2.8,1.3-5.2,0.9-7.7-0.6c-2.5-1.5-4.9-4.4-6.8-8.1c-3.8-7.3-5.5-17.7-3.3-25.3L706.4-0.8z"/>
		</g>
		<path id="path8464" inkscape:connector-curvature="0" sodipodi:nodetypes="ccccsccscccssscssccccscccccccc" class="st1" d="
			M-781.5,472.3l-2.3,2.3c0,0,2.7,2.6,5.2,9.1c2.6,6.4,4.9,16.5,3.9,31.1c-0.6,8.3-3.3,18-8.3,25.3s-12.2,12.2-22.5,11.6
			c-15.9-0.9-25.4-16.1-24.5-29.4c0.5-6.8,2.8-12,6-15.3c3.3-3.2,7.5-4.7,12.5-4.2c5.3,0.6,8.8,3.1,11.1,6.5c2.4,3.3,3.5,7.7,3.7,12
			c0.1,4.4-1,7.7-2.8,9.9c-1.9,2.2-4.5,3.4-7.7,3.4c-6.2,0-10.7-6.6-8.9-11.9c1-2.8,2.8-4.8,5.8-4.2c-0.2-2-6.8-3.1-8.8,3.1
			c-2.6,7.5,3.5,16.1,11.9,16.1c4,0,7.7-1.5,10.1-4.5c2.5-2.9,3.8-7.1,3.6-12.1c-0.2-4.8-1.4-9.7-4.2-13.8c-2.8-4-7.3-7.1-13.5-7.8
			c-5.8-0.6-11.1,1.2-15.1,5.2c-3.9,3.9-6.4,9.9-6.9,17.3c-1.1,15,9.6,31.9,27.5,32.9l0,0c11.5,0.6,19.9-5.1,25.4-13
			c5.5-8,8.2-18.1,8.8-26.9c1.1-15.1-1.3-25.7-4-32.6c-2.8-6.9-6-10.2-6-10.2V472.3z"/>
		<path id="path8466" inkscape:connector-curvature="0" sodipodi:nodetypes="ccsc" class="st11" d="M-797.4,463.9
			c0,0,11.4,16.8,9,36.6c0,0-9.4-16.8-26.5-16.8c-36.6,0-34.2,44.6-28.9,53.2"/>
		<path id="path8468" inkscape:connector-curvature="0" sodipodi:nodetypes="csssc" class="st4" d="M-819.4,410.5
			c0,0-6.7,36.1,19.5,51.8c19.2,11.6,39.5,24.4,39.5,60.7c0,20.1-18,44.2-41.2,44.2c-48.2,0-70.8-106.5-70.8-106.5"/>
		
			<path id="path8470" inkscape:connector-curvature="0" sodipodi:nodetypes="cccccssccccssscsscccccssccccccccccccc" class="st1" d="
			M-862.1,220.1l-5,5c0,0-6.7,6.6-10.6,15.8c-1.9,4.7-3.3,10.1-2.6,15.7c0.6,4.8,2.8,9.8,6.9,14.3c-12.2,6.6-65.4,38.4-65.4,92.9
			c0,25.1,15.9,44,33.3,44c8.5,0,15-3.7,19.3-8.8c4.2-5.2,6.2-11.8,6-17.9l0,0c-0.3-8.1-7.3-15-16.7-13.8c-5.4,0.6-9.5,2.7-12.2,5.6
			c-2.7,3-3.8,6.8-3.5,10.5c0.2,4.5,3.2,7.6,6.7,8.3c4.6,1,7.5-0.9,7.8-1.4c-1.1,0.2-3.9,0-6-1.1c-2.2-1.1-3.8-2.7-4.1-6.1
			c-0.1-2.7,0.6-5.1,2.4-7.2c1.8-2,4.8-3.6,9.5-4.2l0,0c6.9-0.8,11.4,3.9,11.6,9.6c0.2,5-1.6,10.6-5,14.8c-3.5,4.3-8.6,7.2-15.8,7.2
			c-14.1,0-28.8-16.3-28.8-39.5c0-58.2,65.5-90.2,65.5-90.2l3-1.5l-2.4-2.2c-5-4.5-7.1-9.2-7.6-13.8c-0.6-4.6,0.5-9.2,2.3-13.4
			c1.4-3.4,3.3-6.3,5-8.7c-0.6,15.7,6.2,25,13.7,29.9c8.7,5.7,18.2,6,18.2,6l0.2-4.5c0,0-8.4-0.3-15.9-5.3
			c-7.5-4.9-14.2-13.9-11-33.1L-862.1,220.1L-862.1,220.1z"/>
		<path id="path8472" inkscape:connector-curvature="0" sodipodi:nodetypes="ccc" class="st11" d="M-920.8,399.9
			c-18.1-98.8,76.3-108.4,82.2-108.2c0,0-42.1,42.1-47.9,80.3"/>
		<path id="path8474" inkscape:connector-curvature="0" sodipodi:nodetypes="cc" class="st11" d="M-818.5,438.1
			c-50-46.3-13.6-114.6-13.6-114.6"/>
		<path id="path8476" inkscape:connector-curvature="0" sodipodi:nodetypes="cccccsccccccsccccccccccccccc" class="st1" d="
			M-873.7,400.5c-5.9-0.6-11.4,1.2-15.4,5c-4.1,3.7-6.6,9.4-7,16.3c-0.2,4.1,0.7,8.6,3.1,12.4c2.4,3.8,6.5,6.8,11.9,7.3
			c6,0.5,10-2.6,12-6.4c2.4-4.4,0.3-8.9-1.5-9.9c0.5,2.1,0,5.5-1.5,8c-1.6,2.4-4,4.2-8.6,3.8c-4.1-0.4-6.7-2.4-8.5-5.2
			c-1.8-2.9-2.6-6.6-2.4-9.7l0,0c0.3-6,2.4-10.5,5.5-13.3c3.1-2.9,7.2-4.3,12-3.8c10,0.9,18.2,11,18.7,25c0.3,7.7-2.5,16.1-7.6,22.2
			c-5.1,6-12.3,9.8-21.4,8.5c-10.1-1.3-16.6-5.4-21.2-10.8c-4.5-5.4-7-12.3-8.2-19.1c-2.5-13.6,0.2-26.6,0.2-26.6l-4.5-0.9
			c0,0-2.8,13.7-0.2,28.3c1.4,7.3,4,14.9,9.3,21.2c5.2,6.2,13,10.9,24,12.4c10.6,1.4,19.5-3.1,25.4-10.1s9.1-16.4,8.7-25.2
			C-851.4,414.1-860.9,401.6-873.7,400.5L-873.7,400.5z"/>
		<path id="path8478" inkscape:connector-curvature="0" sodipodi:nodetypes="cscscc" class="st4" d="M-794,276.1
			c31.6-14.9,50.4-14.1,67.6-9.1c17.9,5.1,33,11,61,15.3c-4.7-16.7,7.5-30,17.9-45.1c13.8-20.1,9-55.3-68.9-66.5
			C-875.6,121.7-794,276.1-794,276.1L-794,276.1z"/>
		<path id="path8480" inkscape:connector-curvature="0" sodipodi:nodetypes="cccc" class="st11" d="M-814.9,209.5
			c17-60.5,82.8-4,82.8-4l-0.3,35c0,0-56-55-72.7,9"/>
		<path id="path8482" inkscape:connector-curvature="0" sodipodi:nodetypes="cc" class="st11" d="M-667.4,281.7
			c-15-33.7,39.8-80.5-41-96"/>
		<g id="g8484" transform="matrix(0.39352,-0.04219,0.02679,0.4028,-1344.14,-96.45)">
			<g id="g8486">
				<path id="path8488" inkscape:connector-curvature="0" sodipodi:nodetypes="cscccsssssscsc" class="st1" d="M1513.3,738.9
					c63.8,46.9,88.9,112.1,96.7,154.9c12.4,68.5,11.2,141.1,35.9,216.9c0,0-110.6-44.9-179.4-62.3c0,0,3-25.8,0.3-57.5
					c-3.5-41.6-14.1-106-56.3-185.1c-30.6-57.4-96-94.8-140-104.2c-44.6-9.6-94.8,4.6-135.4-16.7c-56.2-29.3-78.1-101.1-55.9-113.2
					c20.8-11.3,42,45.8,73.2,54.8c76.3,22.1,120.1-26,179-17.2c38.2,5.7,93.1,70.6,93.1,70.6c24.7-64.4-58.1-94.4-43.4-118.7
					c12.6-20.8,222.3,29.5,127.6,188.4"/>
				<path id="path8490" inkscape:connector-curvature="0" sodipodi:nodetypes="ccccccccccccccc" class="st1" d="M1517,771.4
					c-2.1,43.4-46.3,61.4-65,135.1l12.8,73.4c0,0,33.6-91.6,75.6-154.3c40,21.2,68.8,66.8,68.8,66.8l-17.3-63.1
					C1582.4,818.8,1535.2,801.9,1517,771.4L1517,771.4z M1567.7,885.4c-36.7,100.5-99.5,140-99.5,140l1.1,23.7l33.4,6.3
					c0,0,50.5-34.8,84.5-103.5c18.2,16.2,37.5,63.5,37.5,63.5l-5.5-73.5C1619.2,941.9,1594.7,901.4,1567.7,885.4L1567.7,885.4z"/>
				
					<path id="path8492" inkscape:connector-curvature="0" sodipodi:nodetypes="csccccccccccccsssssssccccccccccccccccccccccscccsccccccccccsssssssccscsscss" class="st1" d="
					M1393.8,549.7c-3.9,0.2-7.3,0.7-10.4,1.7c-3.1,1-6.2,2.7-8.3,6.1l0,0l0,0c-2.7,4.6-3.3,10.1-2.1,14.8c1.1,4.7,3.6,8.8,6.5,12.8
					c5.9,8,14.1,16,21.7,25c7.6,9,14.6,18.8,18.2,29.8c2.6,7.9,3.6,16.3,1.8,26c-5.9-6.4-14.1-14.9-24.2-24.2
					c-18.9-17.3-42.1-35.8-64.6-39.2l0,0c-31.5-4.7-58.4,5.8-85.9,13.8c-27.6,8.1-56.2,16-92.2,3.6c-16.6-5.7-27.5-21.6-37-32.8
					c-6-7.1-11.8-13.6-18.2-18.4c-19-14.1-34.8,2.3-35.4,21.7c-0.3,10.3,2.4,22.1,7.6,34.3c10.3,24.5,30.7,51,60.6,66.6
					c21.9,11.4,45.8,13.2,69.3,13.5c23.5,0.3,46.7-0.7,67.8,3.8l0,0c41.7,9,106.1,45.9,135.3,100.7l0,0
					c41.7,78,52.1,141.3,55.5,182.4l0,0l0,0c2.7,30.9-0.3,56.1-0.3,56.1l-0.7,6.1l6,1.5c67.8,17.1,177.4,60,177.4,60l13.8,5.4
					l-4.5-14.1c-24.3-74.4-22-144.5-34.6-214l0,0l0,0c-7.8-42.9-32.4-107.1-93.8-154.8c17.1-34.3,20.3-64.2,14.2-89.3
					c-7.1-28.8-26.1-50.6-48.1-66.2c-22.1-15.6-47.2-25.2-68.1-29.6C1410.7,550.3,1401.4,549.3,1393.8,549.7L1393.8,549.7z
					 M1394.7,563.3c5.9-0.3,14,0.9,23.5,3c19.1,4.1,42.8,13.1,62.9,27.4c20.1,14.2,36.5,33.4,42.6,58.1c5.2,21.5,3.7,44.9-9.5,77.1
					c-6.3,15.7-4.4,26.7,0.1,30c0.6-1,1.5-7.8,2-8.8c56.7,45,79.6,105.1,86.8,144.9c11.5,63.5,10.1,130.2,30.8,202
					c-27.9-10.7-103.4-38.9-160-53.8c0.6-7.1,2.2-26.1-0.1-52.9l0,0c-3.6-42.2-14.4-107.8-57.1-187.8
					c-32-59.9-98.4-97.8-144.7-107.8l0,0c-23.5-5.1-47.7-3.8-70.6-4.1s-44.9-1.2-63.1-11.9c-25-14.6-44.2-37.3-54.1-59.6
					c-4.8-10.8-6.7-21.1-6.5-28.6c0.3-9.7,4.9-16.7,13.2-10.6c4.4,3.2,9.8,9.2,15.6,16.1c11.7,13.9,25.2,31.2,44,37.2
					c36.6,11.8,71.7,4.6,99.9-3.6c28.2-8.3,52.6-17.5,80-13.4c15.7,2.3,39.3,18.8,57.1,35.7c14.8,14.1,30.3,28.1,40.6,42.5
					c0,0,3.2-3.6,5.8-15c3.7-16.1,3.3-30.5-1.2-44c-4.5-13.6-12.7-24.8-20.8-34.4c-8.2-9.6-16.6-17.6-21.1-24.2
					C1383.3,565.6,1387.6,563.7,1394.7,563.3L1394.7,563.3z"/>
			</g>
			<g id="g8494">
				<path id="path8496" inkscape:connector-curvature="0" sodipodi:nodetypes="sssscccs" class="st1" d="M1447.2,1012.6
					c-20.5-0.6-30.8-29.5-28.9-45.4c3.4-26.5,29.5-36.4,50.7-36.4c38.2,0,61.6,33.4,86.1,73.7c27.5,45.2,78.5,101,78.5,101
					c-40.8-13.4-75.3-13.1-135.8-54.5c0,0-2.7-51-37.8-75C1469.5,984.8,1472.7,1013.5,1447.2,1012.6L1447.2,1012.6z"/>
				
					<path id="path8498" inkscape:connector-curvature="0" sodipodi:nodetypes="ccccccccccccccccccsccscccccscsssccs" class="st1" d="
					M1469,923.7c-11.7,0-24.6,2.6-35.6,9.3c-11.1,6.7-20.1,17.9-22,33.2l0,0h-0.1c-1.1,9.9,1.3,22,6.9,32.6
					c5.6,10.5,15.3,20.2,28.8,20.7c7.6,0.3,14.2-1.8,18.9-5.8c4.6-4,7-9.5,7.8-14.8c0-0.1-0.1-0.1,0-0.2c3.7,5.4,6.7,11.2,9.1,17.1
					c7.3,18.2,8,43.9,8,43.9l0.3,2.7c40.2,16.7,78.4,44.4,165.1,58.3l-17.4-20.1c0,0-50.9-55.8-77.7-99.9l0,0l0,0
					c-12.3-20.2-24.5-39.1-39-53.3S1490.1,923.7,1469,923.7L1469,923.7z M1469,937.7c17.1,0,30.4,7.2,43.3,19.8
					c12.8,12.6,24.6,30.5,36.8,50.5c18.7,30.7,54,74.4,73.6,92.7c-31.2-6-68.8-21.6-117.8-45.8c-0.6-6.6-3-28.9-9.1-44.2
					c-5.6-14-15.2-29.1-30.4-39.2c-17.6-11.7-28.2,3.3-28.2,3.3c9.8-1.8,14.9,0.3,19.3,4.8c8.4,8.6,2.2,28-9.1,25.9
					c-7.4-1.4-13.8-7.4-16.9-13.2c-4.3-7.9-6-18.3-5.3-24.3c1.5-11.1,7.2-18.1,15.4-23C1448.8,940.1,1459.5,937.7,1469,937.7
					L1469,937.7z"/>
			</g>
		</g>
		<g id="g8500" transform="matrix(0.39088,-0.01383,0.01445,0.37408,-1322.84,-104.75)">
			<path id="path8502" inkscape:connector-curvature="0" sodipodi:nodetypes="csssssc" class="st1" d="M1305.3,1170
				c0,0,27.8-52.6,32-131.9c7.2-136.5-87.7-224-168.5-224c-41.5,0-51.8,17.6-47.3,41.7c6.4,34.1,21.6,68.9,23.9,103.6
				c4.2,62.7-19.7,107.4-19.7,184.9c0,145.5,120.8,146.7,120.8,146.7"/>
			<path id="path8504" inkscape:connector-curvature="0" sodipodi:nodetypes="ccccccc" class="st1" d="M1146.6,960.1
				c0,0,44.5-44.2,88.7,17c-12.4-43.5-34.6-66.1-34.6-66.1c-23-78.1,67.5-53.4,67.5-53.4s-48.8-42.4-99.4-44.9
				c-49.9,0-48.4,33.6-48.4,33.6C1121.5,875.9,1142.7,912.3,1146.6,960.1L1146.6,960.1z"/>
			<path id="path8506" inkscape:connector-curvature="0" sodipodi:nodetypes="ccscccccssscssccccscc" class="st1" d="M1156.7,813.5
				c-6,0.3-11.9,1.8-16.8,4.7c-5,3-9,7.6-10.4,13.7c-2.8,12.1,4.1,27.5,24.9,47.3l0,0l0,0c16.2,15.4,30.6,23.8,43,36
				c12.5,12.2,23.5,28.3,33.3,60.1c6.9,22.3,4.5,50.1,0.5,79.2s-9.8,59.5-7.2,87.3c1.6,17.5,5.7,33.7,14.1,47.6
				c8.4,13.8,19.8,20.8,30.4,20.6c0,0-31.9-19.6-35.5-68.8c-2-27.1,3.8-61,7.1-85.5c4-29.3,6.9-58.2-0.8-83.1
				c-10.2-32.8-22.1-50.7-35.5-63.8c-13.5-13.1-27.8-21.4-43.2-36.1l0,0c-19.7-18.8-24.2-31.9-22.3-38.7
				c2.3-8.4,13.7-12.1,20.9-12.5L1156.7,813.5z"/>
			<path id="path8508" inkscape:connector-curvature="0" sodipodi:nodetypes="scccccccssccscccccsscss" class="st1" d="
				M1168.8,807.1c-21.7-0.7-36.8,4.5-45.9,14c-9.2,9.4-10.8,22.8-8.3,36l0,0l0,0c6.6,35.3,21.6,69.8,23.8,102.8l0,0l0,0
				c4.1,60.7-19.7,105.5-19.7,184.4c0,75,36.9,116.3,74.1,135.8c27.6,14.4,49.3,25.4,78,8.7c0,0-30.8,2.4-71.2-20.9
				c-33.7-18.5-66.9-53.1-66.9-123.6c0-76.1,24-120.7,19.7-185.4l0,0c-2.4-36.4-17.8-71.4-24-104.4l0,0c-2-10.8-0.7-18.3,4.5-23.7
				c5.3-5.4,16.1-9.7,35.9-9.7c75.7,0,168.5,83.5,161.5,216.6c-4.1,77.9-31.4,141.3-31.4,141.3c29.5-20.9,40.6-65.3,45.4-140.5
				C1352.6,907.7,1261.9,810.1,1168.8,807.1L1168.8,807.1z"/>
		</g>
		<path id="path8510" inkscape:connector-curvature="0" sodipodi:nodetypes="cccc" class="st1" d="M-638,277.2
			c12.5-3.9,32,56.5,32,56.5c0.4-4.2-8-43.2-20.9-58.5C-626.9,275.2-634.9,271.2-638,277.2z"/>
		<path id="path8512" inkscape:connector-curvature="0" sodipodi:nodetypes="cccc" class="st1" d="M-608.1,326l1.7,6.2
			c3.8-4.2,13.5-1.9,13.5-1.9S-597.5,324.1-608.1,326L-608.1,326z"/>
		
			<g id="g8514" transform="matrix(0.9997,-0.02467,0.02467,0.9997,-1544.14,366.45)" inkscape:transform-center-x="-71.76" inkscape:transform-center-y="52.701">
			<path id="path8516" inkscape:connector-curvature="0" sodipodi:nodetypes="ccsssssc" class="st1" d="M715,277.4
				c3.9,11.8,30.4,57.9,88.9,32.9c10.7,19.3,7.3,30.3,11.4,53.6c3.7,21.2,22.2,34.2,40.8,40.2c19.2,6.2,38.6,4.9,42.1-2.7
				c3.5-7.5,4.3-16.1,3.2-25.3c-6.4-52.1-76.5-123.9-101.8-124.3c-18.3-0.3-25.7,15-54.6,4.3"/>
			<path id="path8518" inkscape:connector-curvature="0" sodipodi:nodetypes="cscscsccccccccccscsccccccccccc" class="st1" d="
				M799.7,248.6c-10-0.2-16.9,3.8-24.3,6.2c-7.4,2.3-15.3,5.1-29.2-0.1c0,0,8.7,12.1,31,5.8c8.2-2.3,14.1-6,22.4-5.9
				c4.9,0.1,13.9,4.3,23.9,11.7s21.2,18,31.8,30.1c21.2,24.2,40,55,43.1,79.9l0,0l-41.4,24.8l0,0c-18-5.8-35.3-18.1-38.7-37.9
				c-2-11.4-2.2-19.8-3.2-28.1c-1-8.3-3-16.4-8.6-26.4l-1.3-2.4l-2.5,1.1c-28.5,12.2-48.4,7-62.1-2.4s-21.1-23.6-22.8-28.7
				c0,0-4,17.3,19.4,33.6c14.6,10.2,36.5,15.3,65.2,3.9c4.2,8.2,5.8,14.8,6.7,21.9c1,7.9,1.2,16.6,3.3,28.4
				c4,22.6,23.5,36.3,42.8,42.5l49.2-31.2l0,0c-3.3-27.2-22.8-58.3-44.5-83.1c-10.9-12.4-22.3-23.2-32.8-30.9
				C816.6,253.7,807.4,248.7,799.7,248.6L799.7,248.6L799.7,248.6z"/>
			<g id="g8520">
				<path id="path8522" inkscape:connector-curvature="0" sodipodi:nodetypes="cscc" class="st5" d="M856.1,404
					c19.2,6.2,38.6,4.9,42.1-2.7c3.5-7.5,4.3-16.1,3.2-25.3C875.7,366.4,857.9,388.7,856.1,404z"/>
				<path id="path8524" inkscape:connector-curvature="0" sodipodi:nodetypes="cccc" class="st1" d="M881.3,407.4l5.4-22.5
					c0,0,2.1,12.3-2,23.4L881.3,407.4z"/>
			</g>
			<g id="g8526">
				<path id="path8528" inkscape:connector-curvature="0" sodipodi:nodetypes="csscc" class="st1" d="M797.4,303.3
					c-2.3,18-5.5,31.3-10,46.4c-5.6,18.9,20.5,28.9,30.1,9.4c5.5-11.1,3.2-36.6,3.2-36.6S815.1,297.5,797.4,303.3L797.4,303.3z"/>
				<path id="path8530" inkscape:connector-curvature="0" sodipodi:nodetypes="cccsc" class="st1" d="M806.5,320.5
					c0,0,1.1,21.9-10.4,47l3.6,1.7c3.7-8,6.1-15.8,7.7-22.6C810.6,333.3,809.3,324.6,806.5,320.5z"/>
				<path id="path8532" inkscape:connector-curvature="0" sodipodi:nodetypes="cccscsccsc" class="st1" d="M796.8,302.8
					c-2.3,17.7-7.3,31.1-11.8,46.3c-3.2,10.6,2.8,19.4,11,22.1c8.1,2.8,18.6-0.2,23.8-11c4.8-9.9,3.3-34.8-1.5-37.5
					c0,0,0.6,6.2,0.4,13.9c-0.1,7.6-1.1,16.6-3.4,21.4c-4.3,8.8-11.8,10.5-17.7,8.4c-5.9-2-10.2-7.7-7.8-16
					C795,332.7,803,305.6,796.8,302.8L796.8,302.8z"/>
			</g>
		</g>
	</g>
</g>
</svg>
