<?xml version="1.0" encoding="utf-8"?>
<!-- Generator: Adobe Illustrator 27.0.0, SVG Export Plug-In . SVG Version: 6.00 Build 0)  -->
<svg version="1.1" id="Layer_1" xmlns="http://www.w3.org/2000/svg" xmlns:xlink="http://www.w3.org/1999/xlink" x="0px" y="0px"
	 viewBox="0 0 48 48" style="enable-background:new 0 0 48 48;" xml:space="preserve">
<path d="M33.6,7.6c-0.3-0.3-0.6-0.4-1.1-0.4H28V4h-8v3.2h-4.5c-0.4,0-0.8,0.1-1.1,0.4C14.1,7.9,14,8.3,14,8.7v33.8
	c0,0.4,0.1,0.8,0.4,1.1c0.3,0.3,0.6,0.4,1.1,0.4h17c0.4,0,0.8-0.1,1.1-0.4c0.3-0.3,0.4-0.6,0.4-1.1V8.7C34,8.3,33.9,7.9,33.6,7.6z
	 M31,27.8h-4.6L23,36v-8h-3l0.1-0.2H17V10.2h14V27.8z"/>
<polygon points="25,24 25,16 20.1,27.8 26.4,27.8 28,24 "/>
</svg>
