<?xml version="1.0" encoding="utf-8"?>
<!-- Generator: Adobe Illustrator 27.0.0, SVG Export Plug-In . SVG Version: 6.00 Build 0)  -->
<svg version="1.1" id="Layer_1" xmlns="http://www.w3.org/2000/svg" xmlns:xlink="http://www.w3.org/1999/xlink" x="0px" y="0px"
	 viewBox="0 0 48 48" style="enable-background:new 0 0 48 48;" xml:space="preserve">
<path d="M33.6,7.6c-0.3-0.3-0.6-0.4-1.1-0.4H28V4h-8v3.2h-4.5c-0.4,0-0.8,0.1-1.1,0.4C14.1,7.9,14,8.3,14,8.7v33.8
	c0,0.4,0.1,0.8,0.4,1.1c0.3,0.3,0.6,0.4,1.1,0.4h17c0.4,0,0.8-0.1,1.1-0.4c0.3-0.3,0.4-0.6,0.4-1.1V8.7C34,8.3,33.9,7.9,33.6,7.6z
	 M23,36v-8h-3l5-12v8h3L23,36z M31,14.6H17v-4.4h14V14.6z"/>
</svg>
