<?xml version="1.0" encoding="utf-8"?>
<!-- Generator: Adobe Illustrator 27.0.0, SVG Export Plug-In . SVG Version: 6.00 Build 0)  -->
<svg version="1.1" id="Layer_1" xmlns="http://www.w3.org/2000/svg" xmlns:xlink="http://www.w3.org/1999/xlink" x="0px" y="0px"
	 viewBox="0 0 48 48" style="enable-background:new 0 0 48 48;" xml:space="preserve">
<path d="M33.4,8.6C33,8.2,32.6,8,32,8h-4V4h-8v4h-4c-0.6,0-1,0.2-1.4,0.6C14.2,9,14,9.4,14,10v32c0,0.6,0.2,1,0.6,1.4
	C15,43.8,15.4,44,16,44h16c0.6,0,1-0.2,1.4-0.6C33.8,43,34,42.6,34,42V10C34,9.4,33.8,9,33.4,8.6z M23,36v-8h-3l5-12v8h3L23,36z"/>
</svg>
